HIERARCHY
ROOT Hips
{
 OFFSET 0.000000 0.000000 0.000000
 CHANNELS 6 Xposition Yposition Zposition Yrotation Xrotation Zrotation
 JOINT Chest
 {
  OFFSET 0.000000 9.585900 0.002600
  CHANNELS 3 Yrotation Xrotation Zrotation
  JOINT Chest2
  {
   OFFSET 0.000000 9.601200 -0.005300
   CHANNELS 3 Yrotation Xrotation Zrotation
   JOINT Chest3
   {
    OFFSET 0.000000 9.561800 0.000000
    CHANNELS 3 Yrotation Xrotation Zrotation
    JOINT Chest4
    {
     OFFSET 0.000000 9.552100 0.000000
     CHANNELS 3 Yrotation Xrotation Zrotation
     JOINT Neck
     {
      OFFSET 0.000000 14.453000 0.000000
      CHANNELS 3 Yrotation Xrotation Zrotation
      JOINT Head
      {
       OFFSET 0.000000 8.936500 -0.011300
       CHANNELS 3 Yrotation Xrotation Zrotation
       End Site
       {
        OFFSET 0.000000 17.073600 -0.006000
       }
      }
     }
     JOINT RightCollar
     {
      OFFSET -2.921100 9.558500 0.000000
      CHANNELS 3 Yrotation Xrotation Zrotation
      JOINT RightShoulder
      {
       OFFSET -13.519700 0.000000 0.000000
       CHANNELS 3 Yrotation Xrotation Zrotation
       JOINT RightElbow
       {
        OFFSET 0.000000 -29.696600 0.000000
        CHANNELS 3 Yrotation Xrotation Zrotation
        JOINT RightWrist
        {
         OFFSET 0.000000 -24.004700 0.000000
         CHANNELS 3 Yrotation Xrotation Zrotation
         End Site
         {
          OFFSET 0.000000 -17.728500 0.000000
         }
        }
       }
      }
     }
     JOINT LeftCollar
     {
      OFFSET 2.921100 9.558500 0.000000
      CHANNELS 3 Yrotation Xrotation Zrotation
      JOINT LeftShoulder
      {
       OFFSET 13.519700 0.000000 0.000000
       CHANNELS 3 Yrotation Xrotation Zrotation
       JOINT LeftElbow
       {
        OFFSET 0.000000 -29.696600 0.000000
        CHANNELS 3 Yrotation Xrotation Zrotation
        JOINT LeftWrist
        {
         OFFSET 0.000000 -24.004700 0.000000
         CHANNELS 3 Yrotation Xrotation Zrotation
         End Site
         {
          OFFSET 0.000000 -17.728500 0.000000
         }
        }
       }
      }
     }
    }
   }
  }
 }
 JOINT RightHip
 {
  OFFSET -7.771700 -0.012900 -0.001300
  CHANNELS 3 Yrotation Xrotation Zrotation
  JOINT RightKnee
  {
   OFFSET 0.000000 -40.869800 0.001200
   CHANNELS 3 Yrotation Xrotation Zrotation
   JOINT RightAnkle
   {
    OFFSET 0.000000 -39.717900 0.002100
    CHANNELS 3 Yrotation Xrotation Zrotation
    JOINT RightToe
    {
     OFFSET 0.000000 -4.965400 11.033500
     CHANNELS 3 Yrotation Xrotation Zrotation
     End Site
     {
      OFFSET 0.000000 -1.423100 5.872300
     }
    }
   }
  }
 }
 JOINT LeftHip
 {
  OFFSET 7.771700 -0.012900 -0.001300
  CHANNELS 3 Yrotation Xrotation Zrotation
  JOINT LeftKnee
  {
   OFFSET 0.000000 -40.869800 0.001200
   CHANNELS 3 Yrotation Xrotation Zrotation
   JOINT LeftAnkle
   {
    OFFSET 0.000000 -39.717900 0.002100
    CHANNELS 3 Yrotation Xrotation Zrotation
    JOINT LeftToe
    {
     OFFSET 0.000000 -4.965400 11.033500
     CHANNELS 3 Yrotation Xrotation Zrotation
     End Site
     {
      OFFSET 0.000000 -1.423100 5.872300
     }
    }
   }
  }
 }
}
MOTION
Frames: 15
Frame Time: 0.008333
-159.608317 48.989240 18.146297 175.957918 -31.408792 -3.639211 -0.049485 19.833750 2.495991 -0.053613 2.459954 0.272385 -0.090236 4.052097 0.443907 -0.122354 17.102072 1.898736 2.732259 16.277517 -3.310640 6.189882 -5.263888 -7.053731 -1.413965 -3.342195 -3.553202 5.856992 -10.163530 -12.368107 -39.549663 -39.046725 93.006690 3.099797 3.957101 -13.350441 0.799207 -3.144577 2.243693 -7.980163 -4.453299 14.525140 67.682607 -62.133590 -108.079092 4.983784 8.068993 5.954969 -4.048777 -53.862439 -6.563704 -178.715721 83.800923 -166.661870 -29.101258 -2.067479 -4.376818 -0.051392 -12.293112 0.437294 -12.062825 -55.377370 19.025129 -73.886950 64.833662 -79.330298 30.696401 6.470687 17.050372 0.109856 -0.264535 0.026232
-159.604630 48.989909 18.150067 175.934317 -31.409948 -3.635102 -0.036075 19.842962 2.499779 -0.058262 2.469102 0.267801 -0.079559 4.040234 0.447895 -0.123344 17.113926 1.898261 2.720568 16.290047 -3.297260 6.164277 -5.248870 -7.026650 -1.414342 -3.370818 -3.542285 5.876008 -10.158811 -12.368639 -39.525268 -39.065088 92.980082 3.107400 3.965909 -13.376961 0.800235 -3.156488 2.247092 -7.940308 -4.419372 14.509985 67.697959 -62.126883 -108.094273 4.975410 8.041558 5.936635 -4.033679 -53.865313 -6.546271 -178.722489 83.815370 -166.655077 -29.161878 -2.061646 -4.382738 -0.053300 -12.293093 0.439994 -12.074988 -55.372345 19.047323 -73.888758 64.835616 -79.325458 30.696215 6.472574 17.036480 0.113688 -0.262064 0.023218
-159.602257 48.990194 18.154518 175.927920 -31.408723 -3.634062 -0.038255 19.847436 2.493782 -0.056103 2.478824 0.266719 -0.076691 4.030528 0.451790 -0.125053 17.149730 1.890978 2.698087 16.305680 -3.269656 6.154284 -5.266183 -7.014840 -1.414359 -3.421212 -3.520846 5.898396 -10.162462 -12.368403 -39.510895 -39.112854 92.967283 3.101854 3.979884 -13.407450 0.802501 -3.190651 2.256484 -7.899926 -4.383669 14.499054 67.744841 -62.124269 -108.137329 4.953376 8.033882 5.903518 -4.004356 -53.869077 -6.565232 -178.774916 83.813690 -166.697459 -29.108017 -2.050049 -4.404792 -0.033967 -12.296267 0.446954 -12.094183 -55.369040 19.055781 -73.880074 64.836574 -79.307591 30.703422 6.475610 17.021525 0.106707 -0.259050 0.024827
-159.601661 48.990641 18.158366 175.918111 -31.412270 -3.622070 -0.037063 19.879455 2.475605 -0.050815 2.462264 0.273257 -0.079476 4.056838 0.445868 -0.117608 17.123233 1.897833 2.686431 16.322267 -3.256477 6.126952 -5.263333 -6.983945 -1.421591 -3.443646 -3.497311 5.922503 -10.164935 -12.373381 -39.510403 -39.181180 92.955205 3.097661 3.995889 -13.421311 0.800618 -3.196104 2.258063 -7.816185 -4.312607 14.474636 67.845398 -62.152229 -108.278284 4.930839 8.032887 5.867841 -3.979682 -53.869927 -6.589299 -178.814731 83.811536 -166.734166 -29.062200 -2.045149 -4.421546 -0.078138 -12.296138 0.460775 -12.091232 -55.362959 19.046759 -73.863450 64.845320 -79.295769 30.715707 6.468358 17.026851 0.086439 -0.256018 0.021456
-159.600634 48.990684 18.162800 175.911245 -31.411458 -3.616289 -0.032595 19.887073 2.471855 -0.049792 2.457840 0.274006 -0.079873 4.063602 0.445150 -0.114725 17.124475 1.897986 2.674233 16.337070 -3.242709 6.102076 -5.266116 -6.953678 -1.423611 -3.457096 -3.492110 5.925134 -10.165366 -12.374995 -39.518636 -39.227019 92.964402 3.136379 4.001177 -13.420204 0.796966 -3.197304 2.256402 -7.755537 -4.270303 14.457264 67.925533 -62.169556 -108.377159 4.913897 7.982418 5.834246 -3.963852 -53.874822 -6.596498 -178.758326 83.818359 -166.667102 -29.086853 -2.040164 -4.431447 -0.064913 -12.296600 0.462998 -12.096070 -55.363576 19.050340 -73.857279 64.851066 -79.292994 30.720720 6.464649 17.026975 0.079863 -0.255419 0.024829
-159.598378 48.990768 18.167169 175.899107 -31.410476 -3.617080 -0.021119 19.895208 2.477516 -0.051113 2.469467 0.272553 -0.077746 4.054549 0.446523 -0.112511 17.142548 1.896093 2.665091 16.331905 -3.226675 6.080086 -5.270414 -6.923191 -1.425337 -3.489632 -3.475604 5.930083 -10.160519 -12.383293 -39.550629 -39.325867 92.988138 3.086647 4.019081 -13.418986 0.794721 -3.212904 2.254606 -7.731597 -4.263159 14.454382 67.981899 -62.167497 -108.418814 4.893521 7.989304 5.802470 -3.959636 -53.877754 -6.587258 -178.727359 83.825158 -166.627947 -29.093154 -2.036887 -4.437588 -0.052832 -12.295277 0.458451 -12.108668 -55.363086 19.069090 -73.860894 64.863890 -79.291856 30.708681 6.459229 17.013239 0.083995 -0.250065 0.028311
-159.596000 48.990095 18.172652 175.893229 -31.399053 -3.624426 -0.020315 19.914856 2.482351 -0.050285 2.473083 0.272700 -0.073813 4.040072 0.447323 -0.109210 17.172724 1.896115 2.663136 16.293780 -3.219685 6.069432 -5.272449 -6.907643 -1.422985 -3.544060 -3.454166 5.922012 -10.146983 -12.400379 -39.580362 -39.423497 93.026840 3.110356 4.022422 -13.403318 0.797178 -3.252418 2.249405 -7.711621 -4.253122 14.452456 68.023625 -62.176190 -108.462411 4.882207 7.985676 5.785541 -3.970450 -53.890900 -6.569506 -178.764639 83.834724 -166.657858 -29.101968 -2.030901 -4.446205 -0.053829 -12.296079 0.456910 -12.131213 -55.373450 19.096440 -73.856243 64.872557 -79.276707 30.694098 6.468118 16.996006 0.092840 -0.249307 0.033201
-159.595344 48.989401 18.177745 175.885335 -31.386839 -3.622299 -0.014853 19.909747 2.483926 -0.050267 2.474024 0.272740 -0.077806 4.069884 0.447455 -0.105966 17.153077 1.896280 2.660368 16.287674 -3.214415 6.058808 -5.274894 -6.891931 -1.413846 -3.559281 -3.450298 5.914484 -10.147813 -12.405815 -39.599990 -39.479788 93.051348 3.148819 4.014327 -13.384470 0.801143 -3.264703 2.241062 -7.665513 -4.210582 14.433850 68.098402 -62.213202 -108.567067 4.861411 7.967929 5.775281 -3.981967 -53.907372 -6.560491 -178.809370 83.840844 -166.701924 -29.098551 -2.025308 -4.458265 -0.054300 -12.297933 0.455236 -12.144050 -55.390708 19.108123 -73.859681 64.886689 -79.281110 30.703259 6.472724 16.994221 0.079424 -0.255928 0.032718
-159.595398 48.989714 18.181117 175.880474 -31.384169 -3.618636 -0.012562 19.914018 2.482548 -0.050379 2.474941 0.272823 -0.078625 4.076011 0.448271 -0.104983 17.144958 1.895392 2.650275 16.304098 -3.197961 6.041153 -5.279020 -6.865552 -1.406219 -3.559246 -3.446369 5.899667 -10.150721 -12.415965 -39.611408 -39.512176 93.079765 3.157165 4.006595 -13.366204 0.800953 -3.262579 2.229457 -7.651971 -4.204346 14.437505 68.172445 -62.201674 -108.612420 4.836517 8.007271 5.746492 -3.993785 -53.913249 -6.557204 -178.893312 83.843929 -166.791037 -29.073154 -2.019814 -4.470901 -0.057660 -12.300445 0.454666 -12.144513 -55.396630 19.108071 -73.862956 64.893472 -79.284353 30.710050 6.474542 16.994880 0.077035 -0.260303 0.031837
-159.595234 48.990558 18.183917 175.876122 -31.384705 -3.617956 -0.010051 19.925552 2.484715 -0.051872 2.481987 0.273925 -0.076061 4.063557 0.446529 -0.105932 17.158050 1.895902 2.629639 16.312814 -3.173299 6.028558 -5.289676 -6.854045 -1.401613 -3.572626 -3.442601 5.890672 -10.151471 -12.424026 -39.615106 -39.524891 93.095564 3.160337 4.002576 -13.356085 0.797965 -3.277133 2.215827 -7.629164 -4.189222 14.436481 68.203103 -62.216188 -108.651695 4.827041 8.038729 5.742770 -4.021066 -53.914698 -6.540307 -178.977452 83.849255 -166.884933 -29.054490 -2.015944 -4.483890 -0.065877 -12.302384 0.454889 -12.147088 -55.397766 19.113267 -73.869016 64.896000 -79.289891 30.713061 6.474074 16.992260 0.078443 -0.262531 0.033021
-159.595607 48.991257 18.187267 175.878089 -31.380640 -3.619052 -0.013178 19.927218 2.485010 -0.051489 2.479500 0.274467 -0.076059 4.064529 0.445820 -0.108054 17.165000 1.896777 2.618866 16.313395 -3.160021 5.968967 -5.273843 -6.791654 -1.398334 -3.581719 -3.442651 5.890316 -10.155115 -12.426967 -39.617639 -39.527440 93.100243 3.155083 3.995656 -13.327956 0.798060 -3.290426 2.209720 -7.609531 -4.184981 14.432149 68.194101 -62.225450 -108.652646 4.824545 8.082734 5.742036 -4.027505 -53.919610 -6.537155 -179.034413 83.857078 -166.941369 -29.057966 -2.010665 -4.490245 -0.053165 -12.302741 0.451826 -12.152080 -55.402242 19.116976 -73.860259 64.895723 -79.279573 30.716257 6.480979 16.990892 0.076179 -0.265790 0.034134
-159.596397 48.991847 18.191213 175.878345 -31.372928 -3.618284 -0.016358 19.918038 2.486227 -0.049953 2.481791 0.272063 -0.076582 4.067282 0.448029 -0.110472 17.156805 1.902532 2.615634 16.320789 -3.165158 5.935449 -5.263421 -6.750448 -1.391321 -3.573894 -3.443838 5.892147 -10.157668 -12.436602 -39.611537 -39.523051 93.092743 3.137763 3.990224 -13.302772 0.799109 -3.291750 2.197560 -7.610120 -4.195444 14.437100 68.156786 -62.219039 -108.611966 4.824738 8.105235 5.742298 -4.030336 -53.929488 -6.534300 -179.304335 83.868675 -167.214380 -29.071467 -2.002173 -4.496811 -0.029347 -12.303101 0.448050 -12.156092 -55.410129 19.121965 -73.845187 64.893685 -79.265470 30.720313 6.490765 16.993730 0.074354 -0.270621 0.033940
-159.597092 48.993049 18.194690 175.885961 -31.369392 -3.622754 -0.021782 19.907578 2.488663 -0.052585 2.484920 0.272084 -0.077544 4.058901 0.449412 -0.110681 17.164057 1.900577 2.604972 16.325821 -3.150075 5.939962 -5.258958 -6.759075 -1.381929 -3.569656 -3.434527 5.897166 -10.159462 -12.447861 -39.606174 -39.500752 93.069008 3.127871 3.990374 -13.285685 0.800829 -3.315117 2.191675 -7.623712 -4.193368 14.448384 68.107539 -62.201872 -108.548222 4.831075 8.194858 5.743756 -4.029202 -53.932357 -6.537389 -179.384447 83.872658 -167.298244 -29.046155 -1.993237 -4.497084 -0.058167 -12.302492 0.452358 -12.166220 -55.412708 19.128840 -73.827190 64.895844 -79.249364 30.716847 6.499437 16.995963 0.078347 -0.273281 0.033944
-159.598231 48.994823 18.197575 175.887675 -31.371364 -3.621992 -0.020681 19.901230 2.489201 -0.055949 2.485672 0.272314 -0.077578 4.063996 0.448269 -0.110636 17.159705 1.901057 2.592195 16.310962 -3.125389 5.922802 -5.232011 -6.741734 -1.376116 -3.566227 -3.427024 5.906757 -10.159388 -12.451488 -39.583925 -39.485729 93.031247 3.110367 3.977264 -13.287780 0.802515 -3.344114 2.186112 -7.635859 -4.172948 14.455914 68.034415 -62.209141 -108.479336 4.856102 8.287529 5.751101 -4.023716 -53.929734 -6.540946 -179.388095 83.879345 -167.302877 -29.047614 -1.988595 -4.488994 -0.051324 -12.300255 0.443046 -12.165073 -55.410460 19.125862 -73.818536 64.893732 -79.240822 30.723213 6.506182 16.997231 0.074906 -0.277710 0.034117
-159.599866 48.996557 18.200749 175.894168 -31.371986 -3.621294 -0.026087 19.898741 2.485838 -0.051116 2.473165 0.273888 -0.077819 4.060003 0.448668 -0.097967 17.117354 1.908473 2.569661 16.344973 -3.111189 5.891865 -5.213172 -6.710851 -1.393470 -3.511693 -3.420759 5.924652 -10.154964 -12.460336 -39.565174 -39.467975 92.991730 3.090966 3.961584 -13.304031 0.781124 -3.325911 2.176985 -7.682525 -4.186081 14.492836 67.885539 -62.174359 -108.319956 4.882529 8.371614 5.767744 -4.020234 -53.928919 -6.546648 -179.374387 83.887262 -167.289855 -29.060247 -1.982908 -4.485668 -0.008441 -12.299431 0.432249 -12.157181 -55.412761 19.110183 -73.812207 64.897405 -79.229636 30.728159 6.514547 17.001749 0.069400 -0.283219 0.031597
